M48
; DRILL file {KiCad (5.1.10-1-10_14)} date Monday, August 09, 2021 at 11:30:35 PM
; FORMAT={-:-/ absolute / inch / decimal}
; #@! TF.CreationDate,2021-08-09T23:30:35-05:00
; #@! TF.GenerationSoftware,Kicad,Pcbnew,(5.1.10-1-10_14)
; #@! TF.FileFunction,NonPlated,1,2,NPTH
FMAT,2
INCH
T1C0.0256
T2C0.0315
T3C0.0670
T4C0.1570
%
G90
G05
T1
X4.4331Y-1.8468
X4.6606Y-1.8468
T2
X11.9766Y-1.9738
X11.9766Y-2.0338
X11.9766Y-2.0938
X11.9766Y-2.1538
X11.9766Y-2.2138
X11.9766Y-2.7225
X11.9766Y-2.7825
X11.9766Y-2.8425
X11.9766Y-2.9025
X11.9766Y-2.9625
X11.9766Y-3.4738
X11.9766Y-3.5338
X11.9766Y-3.5938
X11.9766Y-3.6538
X11.9766Y-3.7138
X12.0Y-4.2186
X12.0Y-4.2786
X12.0Y-4.3386
X12.0Y-4.3986
X12.0Y-4.4586
T3
X3.2219Y-2.0938
X3.2219Y-2.8438
X3.2219Y-3.5938
X3.2219Y-4.3438
X3.6219Y-2.0938
X3.6219Y-2.8438
X3.6219Y-3.5938
X3.6219Y-4.3438
X3.9719Y-2.0938
X3.9719Y-2.8438
X3.9719Y-3.5938
X3.9719Y-4.3438
X4.3719Y-2.0938
X4.3719Y-2.8438
X4.3719Y-3.5938
X4.3719Y-4.3438
X4.7219Y-2.0938
X4.7219Y-2.8438
X4.7219Y-3.5938
X4.7219Y-4.3438
X5.1219Y-2.0938
X5.1219Y-2.8438
X5.1219Y-3.5938
X5.1219Y-4.3438
X5.4719Y-2.0938
X5.4719Y-3.5938
X5.4719Y-4.3438
X5.4721Y-2.8438
X5.8719Y-2.0938
X5.8719Y-3.5938
X5.8719Y-4.3438
X5.8721Y-2.8438
X6.2219Y-2.0938
X6.2219Y-2.8438
X6.2219Y-3.5938
X6.2219Y-4.3438
X6.6219Y-2.0938
X6.6219Y-2.8438
X6.6219Y-3.5938
X6.6219Y-4.3438
X6.9719Y-2.0938
X6.9719Y-2.8438
X6.9719Y-3.5938
X6.9719Y-4.3438
X7.3719Y-2.0938
X7.3719Y-2.8438
X7.3719Y-3.5938
X7.3719Y-4.3438
X7.7219Y-2.0938
X7.7219Y-2.8438
X7.7219Y-3.5938
X7.7219Y-4.3438
X8.1219Y-2.0938
X8.1219Y-2.8438
X8.1219Y-3.5938
X8.1219Y-4.3438
X8.4719Y-2.0938
X8.4719Y-2.8438
X8.4719Y-3.5938
X8.4719Y-4.3438
X8.8719Y-2.0938
X8.8719Y-2.8438
X8.8719Y-3.5938
X8.8719Y-4.3438
X9.2219Y-2.0938
X9.2219Y-2.8438
X9.2219Y-3.5938
X9.2219Y-4.3438
X9.6219Y-2.0938
X9.6219Y-2.8438
X9.6219Y-3.5938
X9.6219Y-4.3438
X9.9719Y-2.0938
X9.9719Y-2.8438
X9.9719Y-3.5938
X9.9719Y-4.3438
X10.3719Y-2.0938
X10.3719Y-2.8438
X10.3719Y-3.5938
X10.3719Y-4.3438
X10.7219Y-2.0938
X10.7219Y-2.8438
X10.7219Y-3.5938
X10.7219Y-4.3438
X11.1219Y-2.0938
X11.1219Y-2.8438
X11.1219Y-3.5938
X11.1219Y-4.3438
X11.4719Y-2.0938
X11.4719Y-2.8438
X11.4719Y-3.5938
X11.4719Y-4.3438
X11.8719Y-2.0938
X11.8719Y-2.8438
X11.8719Y-3.5938
X11.8719Y-4.3438
X12.4094Y-2.0938
X12.4094Y-2.8438
X12.4094Y-3.5938
X12.4094Y-4.3438
X12.8094Y-2.0938
X12.8094Y-2.8438
X12.8094Y-3.5938
X12.8094Y-4.3438
T4
X3.4219Y-2.0938
X3.4219Y-2.8438
X3.4219Y-3.5938
X3.4219Y-4.3438
X4.1719Y-2.0938
X4.1719Y-2.8438
X4.1719Y-3.5938
X4.1719Y-4.3438
X4.9219Y-2.0938
X4.9219Y-2.8438
X4.9219Y-3.5938
X4.9219Y-4.3438
X5.6719Y-2.0938
X5.6719Y-3.5938
X5.6719Y-4.3438
X5.6721Y-2.8438
X6.4219Y-2.0938
X6.4219Y-2.8438
X6.4219Y-3.5938
X6.4219Y-4.3438
X7.1719Y-2.0938
X7.1719Y-2.8438
X7.1719Y-3.5938
X7.1719Y-4.3438
X7.9219Y-2.0938
X7.9219Y-2.8438
X7.9219Y-3.5938
X7.9219Y-4.3438
X8.6719Y-2.0938
X8.6719Y-2.8438
X8.6719Y-3.5938
X8.6719Y-4.3438
X9.4219Y-2.0938
X9.4219Y-2.8438
X9.4219Y-3.5938
X9.4219Y-4.3438
X10.1719Y-2.0938
X10.1719Y-2.8438
X10.1719Y-3.5938
X10.1719Y-4.3438
X10.9219Y-2.0938
X10.9219Y-2.8438
X10.9219Y-3.5938
X10.9219Y-4.3438
X11.6719Y-2.0938
X11.6719Y-2.8438
X11.6719Y-3.5938
X11.6719Y-4.3438
X12.6094Y-2.0938
X12.6094Y-2.8438
X12.6094Y-3.5938
X12.6094Y-4.3438
T0
M30
