G04 #@! TF.GenerationSoftware,KiCad,Pcbnew,(5.1.10-1-10_14)*
G04 #@! TF.CreationDate,2021-08-09T23:30:33-05:00*
G04 #@! TF.ProjectId,ori,6f72692e-6b69-4636-9164-5f7063625858,rev?*
G04 #@! TF.SameCoordinates,Original*
G04 #@! TF.FileFunction,Profile,NP*
%FSLAX46Y46*%
G04 Gerber Fmt 4.6, Leading zero omitted, Abs format (unit mm)*
G04 Created by KiCad (PCBNEW (5.1.10-1-10_14)) date 2021-08-09 23:30:33*
%MOMM*%
%LPD*%
G01*
G04 APERTURE LIST*
G04 #@! TA.AperFunction,Profile*
%ADD10C,0.050000*%
G04 #@! TD*
G04 APERTURE END LIST*
D10*
X321468955Y-45442189D02*
X322659581Y-44846876D01*
X319087703Y-45442189D02*
X321468955Y-45442189D01*
X317897077Y-44846876D02*
X319087703Y-45442189D01*
X317897077Y-44846876D02*
X309562515Y-44846880D01*
X322659581Y-44846876D02*
X326231335Y-44846880D01*
X194071973Y-44846876D02*
X265509533Y-44846876D01*
X270272037Y-44846876D02*
X302418735Y-44846880D01*
X121108809Y-44846880D02*
X189309469Y-44846876D01*
X98821893Y-44846876D02*
X109872441Y-44846880D01*
X80961555Y-44846880D02*
X94059389Y-44846876D01*
X317897077Y-118665688D02*
X309562515Y-118665940D01*
X326231335Y-118665940D02*
X322659581Y-118665688D01*
X317897077Y-118665688D02*
X318492390Y-118070375D01*
X318492390Y-118070375D02*
X322064268Y-118070375D01*
X322064268Y-118070375D02*
X322659581Y-118665688D01*
X270272037Y-44846876D02*
X269676724Y-45442189D01*
X269676724Y-45442189D02*
X266104846Y-45442189D01*
X266104846Y-45442189D02*
X265509533Y-44846876D01*
X194071973Y-44846876D02*
X193476660Y-45442189D01*
X193476660Y-45442189D02*
X189904782Y-45442189D01*
X189904782Y-45442189D02*
X189309469Y-44846876D01*
X98821893Y-44846876D02*
X98226580Y-45442189D01*
X98226580Y-45442189D02*
X94654702Y-45442189D01*
X94654702Y-45442189D02*
X94059389Y-44846876D01*
X189309469Y-118665688D02*
X98821893Y-118665688D01*
X284559549Y-118665688D02*
X194071973Y-118665688D01*
X302418735Y-118665940D02*
X289322053Y-118665688D01*
X189309469Y-118665688D02*
X189904782Y-118070375D01*
X189904782Y-118070375D02*
X193476660Y-118070375D01*
X193476660Y-118070375D02*
X194071973Y-118665688D01*
X284559549Y-118665688D02*
X285154862Y-118070375D01*
X285154862Y-118070375D02*
X288726740Y-118070375D01*
X288726740Y-118070375D02*
X289322053Y-118665688D01*
X98226580Y-118070375D02*
X98821893Y-118665688D01*
X94654702Y-118070375D02*
X98226580Y-118070375D01*
X94059389Y-118665688D02*
X94654702Y-118070375D01*
X94059389Y-118665688D02*
X80961555Y-118665940D01*
X304799995Y-47228140D02*
X304799995Y-49609380D01*
X307181255Y-47228140D02*
X307181255Y-49609380D01*
X307181255Y-49609380D02*
G75*
G02*
X304799995Y-49609380I-1190630J0D01*
G01*
X304799995Y-56753136D02*
G75*
G02*
X307181255Y-56753136I1190630J0D01*
G01*
X307181255Y-68659396D02*
G75*
G02*
X304799995Y-68659396I-1190630J0D01*
G01*
X304799995Y-75803152D02*
G75*
G02*
X307181255Y-75803152I1190630J0D01*
G01*
X307181255Y-87709412D02*
G75*
G02*
X304799995Y-87709412I-1190630J0D01*
G01*
X304799995Y-94853168D02*
G75*
G02*
X307181255Y-94853168I1190630J0D01*
G01*
X307181255Y-105569010D02*
G75*
G02*
X304799995Y-105569010I-1190630J0D01*
G01*
X304799995Y-115094050D02*
X304799995Y-116284680D01*
X307181255Y-115094050D02*
X307181255Y-116284680D01*
X304799995Y-115094050D02*
G75*
G02*
X307181255Y-115094050I1190630J0D01*
G01*
X328612595Y-47228140D02*
X328612595Y-116284680D01*
X78580295Y-47228140D02*
G75*
G02*
X80961555Y-44846880I2381260J0D01*
G01*
X80961555Y-118665940D02*
G75*
G02*
X78580295Y-116284680I0J2381260D01*
G01*
X309562515Y-118665940D02*
G75*
G02*
X307181255Y-116284680I0J2381260D01*
G01*
X304799995Y-116284680D02*
G75*
G02*
X302418735Y-118665940I-2381260J0D01*
G01*
X328612595Y-116284680D02*
G75*
G02*
X326231335Y-118665940I-2381260J0D01*
G01*
X326231335Y-44846880D02*
G75*
G02*
X328612595Y-47228140I0J-2381260D01*
G01*
X307181255Y-47228140D02*
G75*
G02*
X309562515Y-44846880I2381260J0D01*
G01*
X302418735Y-44846880D02*
G75*
G02*
X304799995Y-47228140I0J-2381260D01*
G01*
X120590625Y-44328696D02*
X120590625Y-42956250D01*
X110390625Y-42956302D02*
X110390625Y-44328696D01*
X110390625Y-44328696D02*
G75*
G02*
X109872441Y-44846880I-518184J0D01*
G01*
X110390625Y-42956302D02*
G75*
G02*
X111167865Y-42179062I777240J0D01*
G01*
X78580295Y-116284680D02*
X78580295Y-47228140D01*
X304799995Y-105569010D02*
X304799995Y-94853168D01*
X307181255Y-94853168D02*
X307181255Y-105569010D01*
X304800191Y-87709412D02*
X304800191Y-75803152D01*
X307181443Y-75803152D02*
X307181255Y-87709412D01*
X304800191Y-68659396D02*
X304799995Y-56753136D01*
X307181255Y-56753136D02*
X307181443Y-68659396D01*
X111167865Y-42179062D02*
X119813385Y-42179010D01*
X119813385Y-42179010D02*
G75*
G02*
X120590625Y-42956250I0J-777240D01*
G01*
X121108809Y-44846880D02*
G75*
G02*
X120590625Y-44328696I0J518184D01*
G01*
M02*
