M48
; DRILL file {KiCad (5.1.10-1-10_14)} date Monday, August 09, 2021 at 11:30:35 PM
; FORMAT={-:-/ absolute / inch / decimal}
; #@! TF.CreationDate,2021-08-09T23:30:35-05:00
; #@! TF.GenerationSoftware,Kicad,Pcbnew,(5.1.10-1-10_14)
; #@! TF.FileFunction,Plated,1,2,PTH
FMAT,2
INCH
T1C0.0098
T2C0.0157
T3C0.0236
T4C0.0394
T5C0.0420
T6C0.0591
T7C0.0600
T8C0.1575
%
G90
G05
T1
X3.2719Y-3.1839
X3.8642Y-1.9823
X4.0461Y-3.06
X4.0768Y-3.3012
X4.0984Y-1.8524
X4.2185Y-3.3406
X4.374Y-1.9724
X4.4252Y-2.2382
X4.4252Y-2.7835
X4.426Y-3.4557
X4.426Y-3.4852
X4.4882Y-2.6201
X4.4882Y-2.8681
X4.4941Y-1.9724
X4.5197Y-2.8681
X4.5453Y-4.1043
X4.5512Y-2.8681
X4.5787Y-2.6201
X4.5827Y-2.8681
X4.6299Y-1.9528
X4.687Y-2.3996
X4.7028Y-1.9528
X4.7315Y-3.3773
X4.7736Y-2.6045
X4.7803Y-3.3565
X4.7803Y-3.3986
X4.8248Y-2.9961
X4.8602Y-3.0002
X4.874Y-3.3898
X4.924Y-3.3447
X4.924Y-3.373
X4.9488Y-3.0236
X4.9882Y-3.1457
X5.0965Y-2.7402
X5.1032Y-3.3447
X5.1032Y-3.3695
X5.2146Y-3.1687
X5.2146Y-3.2085
X5.2224Y-2.7126
X5.2224Y-2.8642
X5.2362Y-3.2283
X5.2382Y-3.1886
X5.2402Y-3.1488
X5.3661Y-2.8642
X5.4961Y-3.2833
X5.498Y-2.372
X5.5219Y-3.1296
X6.2719Y-3.1434
X7.0219Y-3.1603
X7.7719Y-3.178
X8.5219Y-3.1906
X9.2719Y-3.2044
X10.0219Y-2.3284
X10.0219Y-3.2252
X10.7719Y-2.3138
X10.7719Y-3.2378
X11.5219Y-2.2607
X11.5219Y-3.056
X11.7378Y-2.9825
X11.8323Y-2.9825
T2
X4.187Y-3.2874
X4.4189Y-1.9471
X4.4567Y-2.8268
X4.6004Y-2.0965
X4.6713Y-2.5984
X4.6713Y-2.7638
X4.687Y-2.4331
X4.8248Y-3.6535
X4.8386Y-3.0295
X4.8406Y-3.185
T4
X12.5099Y-1.8187
X12.5099Y-2.3895
X12.6084Y-2.3895
X12.7068Y-1.8187
X12.7068Y-2.3895
T5
X7.5252Y-2.3087
X7.5252Y-2.5087
X7.5252Y-2.7087
X7.5412Y-2.2087
X7.5412Y-2.4087
X7.5412Y-2.6087
T7
X3.2719Y-1.9937
X3.2719Y-2.7437
X3.2719Y-3.4937
X3.2719Y-4.2437
X3.5219Y-1.8938
X3.5219Y-2.6437
X3.5219Y-3.3937
X3.5219Y-4.1437
X4.0219Y-1.9937
X4.0219Y-2.7437
X4.0219Y-3.4937
X4.0219Y-4.2437
X4.2719Y-1.8938
X4.2719Y-2.6437
X4.2719Y-3.3937
X4.2719Y-4.1437
X4.7719Y-1.9937
X4.7719Y-2.7437
X4.7719Y-3.4937
X4.7719Y-4.2437
X5.0219Y-1.8938
X5.0219Y-2.6437
X5.0219Y-3.3937
X5.0219Y-4.1437
X5.5219Y-1.9937
X5.5219Y-3.4937
X5.5219Y-4.2437
X5.5221Y-2.7437
X5.7719Y-1.8938
X5.7719Y-3.3937
X5.7719Y-4.1437
X5.7721Y-2.6437
X6.2719Y-1.9937
X6.2719Y-2.7437
X6.2719Y-3.4937
X6.2719Y-4.2437
X6.5219Y-1.8938
X6.5219Y-2.6437
X6.5219Y-3.3937
X6.5219Y-4.1437
X7.0219Y-1.9937
X7.0219Y-2.7437
X7.0219Y-3.4937
X7.0219Y-4.2437
X7.2719Y-1.8938
X7.2719Y-2.6437
X7.2719Y-3.3937
X7.2719Y-4.1437
X7.7719Y-1.9937
X7.7719Y-2.7437
X7.7719Y-3.4937
X7.7719Y-4.2437
X8.0219Y-1.8938
X8.0219Y-2.6437
X8.0219Y-3.3937
X8.0219Y-4.1437
X8.5219Y-1.9937
X8.5219Y-2.7437
X8.5219Y-3.4937
X8.5219Y-4.2437
X8.7719Y-1.8938
X8.7719Y-2.6437
X8.7719Y-3.3937
X8.7719Y-4.1437
X9.2719Y-1.9937
X9.2719Y-2.7437
X9.2719Y-3.4937
X9.2719Y-4.2437
X9.5219Y-1.8938
X9.5219Y-2.6437
X9.5219Y-3.3937
X9.5219Y-4.1437
X10.0219Y-1.9937
X10.0219Y-2.7437
X10.0219Y-3.4937
X10.0219Y-4.2437
X10.2719Y-1.8938
X10.2719Y-2.6437
X10.2719Y-3.3937
X10.2719Y-4.1437
X10.7719Y-1.9937
X10.7719Y-2.7437
X10.7719Y-3.4937
X10.7719Y-4.2437
X11.0219Y-1.8938
X11.0219Y-2.6437
X11.0219Y-3.3937
X11.0219Y-4.1437
X11.5219Y-1.9937
X11.5219Y-2.7437
X11.5219Y-3.4937
X11.5219Y-4.2437
X11.7719Y-1.8938
X11.7719Y-2.6437
X11.7719Y-3.3937
X11.7719Y-4.1437
X12.4594Y-1.9937
X12.4594Y-2.7438
X12.4594Y-3.4938
X12.4594Y-4.2438
X12.7094Y-1.8938
X12.7094Y-2.6438
X12.7094Y-3.3938
X12.7094Y-4.1438
T8
X3.7969Y-2.4688
X3.7969Y-3.9688
X6.0469Y-2.4688
X6.0469Y-3.9688
X9.0469Y-2.4688
X9.0469Y-3.9688
X11.2969Y-2.4688
X11.2969Y-3.9688
X12.2344Y-2.4688
X12.2344Y-3.9688
T3
G00X4.3776Y-1.6913
M15
G01X4.3776Y-1.7149
M16
G05
G00X4.3776Y-1.8468
M15
G01X4.3776Y-1.8901
M16
G05
G00X4.7161Y-1.6913
M15
G01X4.7161Y-1.7149
M16
G05
G00X4.7161Y-1.8468
M15
G01X4.7161Y-1.8901
M16
G05
T6
G00X12.3879Y-2.1198
M15
G01X12.3879Y-2.0687
M16
G05
G00X12.8288Y-2.1198
M15
G01X12.8288Y-2.0687
M16
G05
T0
M30
