M48
; DRILL file {KiCad (5.1.10-1-10_14)} date Monday, August 09, 2021 at 06:52:43 PM
; FORMAT={-:-/ absolute / inch / decimal}
; #@! TF.CreationDate,2021-08-09T18:52:43-05:00
; #@! TF.GenerationSoftware,Kicad,Pcbnew,(5.1.10-1-10_14)
; #@! TF.FileFunction,Plated,1,2,PTH
FMAT,2
INCH
T1C0.0098
T2C0.0866
%
G90
G05
T1
X14.6964Y-1.9448
X15.1651Y-2.3433
T2
X6.5157Y-3.8438
X6.5167Y-1.5698
X6.5167Y-2.3433
X6.5167Y-4.6167
X8.0167Y-1.9683
X8.7657Y-2.3438
X8.7657Y-3.8438
X10.2667Y-1.5698
X10.2667Y-4.6167
X11.7291Y-2.3488
X11.7657Y-3.8438
X13.2667Y-1.5698
X13.2667Y-4.6167
X13.9732Y-2.3488
X13.9732Y-3.8449
X14.9542Y-2.3433
X14.9542Y-3.8449
X15.3292Y-1.5698
X15.3292Y-4.6167
T0
M30
