G04 #@! TF.GenerationSoftware,KiCad,Pcbnew,(5.1.10-1-10_14)*
G04 #@! TF.CreationDate,2021-08-09T18:52:42-05:00*
G04 #@! TF.ProjectId,ori_bottom_plate,6f72695f-626f-4747-946f-6d5f706c6174,rev?*
G04 #@! TF.SameCoordinates,Original*
G04 #@! TF.FileFunction,Legend,Top*
G04 #@! TF.FilePolarity,Positive*
%FSLAX46Y46*%
G04 Gerber Fmt 4.6, Leading zero omitted, Abs format (unit mm)*
G04 Created by KiCad (PCBNEW (5.1.10-1-10_14)) date 2021-08-09 18:52:42*
%MOMM*%
%LPD*%
G01*
G04 APERTURE LIST*
%ADD10C,0.150000*%
%ADD11C,0.200000*%
%ADD12C,0.100000*%
G04 APERTURE END LIST*
D10*
X379288374Y-83187967D02*
X380002660Y-83187967D01*
X380145517Y-83235586D01*
X380240755Y-83330824D01*
X380288374Y-83473681D01*
X380288374Y-83568920D01*
X380288374Y-82235586D02*
X380288374Y-82711777D01*
X379288374Y-82711777D01*
X380193136Y-81330824D02*
X380240755Y-81378443D01*
X380288374Y-81521300D01*
X380288374Y-81616539D01*
X380240755Y-81759396D01*
X380145517Y-81854634D01*
X380050279Y-81902253D01*
X379859803Y-81949872D01*
X379716946Y-81949872D01*
X379526470Y-81902253D01*
X379431232Y-81854634D01*
X379335994Y-81759396D01*
X379288374Y-81616539D01*
X379288374Y-81521300D01*
X379335994Y-81378443D01*
X379383613Y-81330824D01*
X379288374Y-80616539D02*
X380002660Y-80616539D01*
X380145517Y-80664158D01*
X380240755Y-80759396D01*
X380288374Y-80902253D01*
X380288374Y-80997491D01*
X380288374Y-79664158D02*
X380288374Y-80140348D01*
X379288374Y-80140348D01*
X380193136Y-78759396D02*
X380240755Y-78807015D01*
X380288374Y-78949872D01*
X380288374Y-79045110D01*
X380240755Y-79187967D01*
X380145517Y-79283205D01*
X380050279Y-79330824D01*
X379859803Y-79378443D01*
X379716946Y-79378443D01*
X379526470Y-79330824D01*
X379431232Y-79283205D01*
X379335994Y-79187967D01*
X379288374Y-79045110D01*
X379288374Y-78949872D01*
X379335994Y-78807015D01*
X379383613Y-78759396D01*
X379288374Y-78045110D02*
X380002660Y-78045110D01*
X380145517Y-78092729D01*
X380240755Y-78187967D01*
X380288374Y-78330824D01*
X380288374Y-78426062D01*
X380288374Y-77092729D02*
X380288374Y-77568920D01*
X379288374Y-77568920D01*
X380193136Y-76187967D02*
X380240755Y-76235586D01*
X380288374Y-76378443D01*
X380288374Y-76473681D01*
X380240755Y-76616539D01*
X380145517Y-76711777D01*
X380050279Y-76759396D01*
X379859803Y-76807015D01*
X379716946Y-76807015D01*
X379526470Y-76759396D01*
X379431232Y-76711777D01*
X379335994Y-76616539D01*
X379288374Y-76473681D01*
X379288374Y-76378443D01*
X379335994Y-76235586D01*
X379383613Y-76187967D01*
X379288374Y-75473681D02*
X380002660Y-75473681D01*
X380145517Y-75521300D01*
X380240755Y-75616539D01*
X380288374Y-75759396D01*
X380288374Y-75854634D01*
X380288374Y-74521300D02*
X380288374Y-74997491D01*
X379288374Y-74997491D01*
X380193136Y-73616539D02*
X380240755Y-73664158D01*
X380288374Y-73807015D01*
X380288374Y-73902253D01*
X380240755Y-74045110D01*
X380145517Y-74140348D01*
X380050279Y-74187967D01*
X379859803Y-74235586D01*
X379716946Y-74235586D01*
X379526470Y-74187967D01*
X379431232Y-74140348D01*
X379335994Y-74045110D01*
X379288374Y-73902253D01*
X379288374Y-73807015D01*
X379335994Y-73664158D01*
X379383613Y-73616539D01*
D11*
X212425368Y-43812026D02*
X212425368Y-44823931D01*
X212365844Y-44942979D01*
X212306320Y-45002503D01*
X212187273Y-45062026D01*
X212008701Y-45062026D01*
X211889654Y-45002503D01*
X212425368Y-44585836D02*
X212306320Y-44645360D01*
X212068225Y-44645360D01*
X211949177Y-44585836D01*
X211889654Y-44526312D01*
X211830130Y-44407264D01*
X211830130Y-44050122D01*
X211889654Y-43931074D01*
X211949177Y-43871550D01*
X212068225Y-43812026D01*
X212306320Y-43812026D01*
X212425368Y-43871550D01*
X213020606Y-44645360D02*
X213020606Y-43812026D01*
X213020606Y-43395360D02*
X212961082Y-43454884D01*
X213020606Y-43514407D01*
X213080130Y-43454884D01*
X213020606Y-43395360D01*
X213020606Y-43514407D01*
X213437273Y-43812026D02*
X213913463Y-43812026D01*
X213615844Y-43395360D02*
X213615844Y-44466788D01*
X213675368Y-44585836D01*
X213794416Y-44645360D01*
X213913463Y-44645360D01*
X214330130Y-44645360D02*
X214330130Y-43395360D01*
X214865844Y-44645360D02*
X214865844Y-43990598D01*
X214806320Y-43871550D01*
X214687273Y-43812026D01*
X214508701Y-43812026D01*
X214389654Y-43871550D01*
X214330130Y-43931074D01*
X215996796Y-43812026D02*
X215996796Y-44645360D01*
X215461082Y-43812026D02*
X215461082Y-44466788D01*
X215520606Y-44585836D01*
X215639654Y-44645360D01*
X215818225Y-44645360D01*
X215937273Y-44585836D01*
X215996796Y-44526312D01*
X216592035Y-44645360D02*
X216592035Y-43395360D01*
X216592035Y-43871550D02*
X216711082Y-43812026D01*
X216949177Y-43812026D01*
X217068225Y-43871550D01*
X217127749Y-43931074D01*
X217187273Y-44050122D01*
X217187273Y-44407264D01*
X217127749Y-44526312D01*
X217068225Y-44585836D01*
X216949177Y-44645360D01*
X216711082Y-44645360D01*
X216592035Y-44585836D01*
X217722987Y-44526312D02*
X217782511Y-44585836D01*
X217722987Y-44645360D01*
X217663463Y-44585836D01*
X217722987Y-44526312D01*
X217722987Y-44645360D01*
X218853939Y-44585836D02*
X218734892Y-44645360D01*
X218496796Y-44645360D01*
X218377749Y-44585836D01*
X218318225Y-44526312D01*
X218258701Y-44407264D01*
X218258701Y-44050122D01*
X218318225Y-43931074D01*
X218377749Y-43871550D01*
X218496796Y-43812026D01*
X218734892Y-43812026D01*
X218853939Y-43871550D01*
X219568225Y-44645360D02*
X219449177Y-44585836D01*
X219389654Y-44526312D01*
X219330130Y-44407264D01*
X219330130Y-44050122D01*
X219389654Y-43931074D01*
X219449177Y-43871550D01*
X219568225Y-43812026D01*
X219746796Y-43812026D01*
X219865844Y-43871550D01*
X219925368Y-43931074D01*
X219984892Y-44050122D01*
X219984892Y-44407264D01*
X219925368Y-44526312D01*
X219865844Y-44585836D01*
X219746796Y-44645360D01*
X219568225Y-44645360D01*
X220520606Y-44645360D02*
X220520606Y-43812026D01*
X220520606Y-43931074D02*
X220580130Y-43871550D01*
X220699177Y-43812026D01*
X220877749Y-43812026D01*
X220996796Y-43871550D01*
X221056320Y-43990598D01*
X221056320Y-44645360D01*
X221056320Y-43990598D02*
X221115844Y-43871550D01*
X221234892Y-43812026D01*
X221413463Y-43812026D01*
X221532511Y-43871550D01*
X221592035Y-43990598D01*
X221592035Y-44645360D01*
X223080130Y-43335836D02*
X222008701Y-44942979D01*
X224032511Y-44645360D02*
X224032511Y-43395360D01*
X224032511Y-44585836D02*
X223913463Y-44645360D01*
X223675368Y-44645360D01*
X223556320Y-44585836D01*
X223496796Y-44526312D01*
X223437273Y-44407264D01*
X223437273Y-44050122D01*
X223496796Y-43931074D01*
X223556320Y-43871550D01*
X223675368Y-43812026D01*
X223913463Y-43812026D01*
X224032511Y-43871550D01*
X224627749Y-44645360D02*
X224627749Y-43812026D01*
X224627749Y-43395360D02*
X224568225Y-43454884D01*
X224627749Y-43514407D01*
X224687273Y-43454884D01*
X224627749Y-43395360D01*
X224627749Y-43514407D01*
X225699177Y-44585836D02*
X225580130Y-44645360D01*
X225342035Y-44645360D01*
X225222987Y-44585836D01*
X225163463Y-44466788D01*
X225163463Y-43990598D01*
X225222987Y-43871550D01*
X225342035Y-43812026D01*
X225580130Y-43812026D01*
X225699177Y-43871550D01*
X225758701Y-43990598D01*
X225758701Y-44109645D01*
X225163463Y-44228693D01*
X226294416Y-44645360D02*
X226294416Y-43812026D01*
X226294416Y-44050122D02*
X226353939Y-43931074D01*
X226413463Y-43871550D01*
X226532511Y-43812026D01*
X226651558Y-43812026D01*
X227068225Y-44645360D02*
X227068225Y-43812026D01*
X227068225Y-43395360D02*
X227008701Y-43454884D01*
X227068225Y-43514407D01*
X227127749Y-43454884D01*
X227068225Y-43395360D01*
X227068225Y-43514407D01*
X228199177Y-44585836D02*
X228080130Y-44645360D01*
X227842035Y-44645360D01*
X227722987Y-44585836D01*
X227663463Y-44526312D01*
X227603939Y-44407264D01*
X227603939Y-44050122D01*
X227663463Y-43931074D01*
X227722987Y-43871550D01*
X227842035Y-43812026D01*
X228080130Y-43812026D01*
X228199177Y-43871550D01*
X228734892Y-44645360D02*
X228734892Y-43395360D01*
X228853939Y-44169169D02*
X229211082Y-44645360D01*
X229211082Y-43812026D02*
X228734892Y-44288217D01*
X230282511Y-44645360D02*
X230282511Y-43395360D01*
X230282511Y-44585836D02*
X230163463Y-44645360D01*
X229925368Y-44645360D01*
X229806320Y-44585836D01*
X229746796Y-44526312D01*
X229687273Y-44407264D01*
X229687273Y-44050122D01*
X229746796Y-43931074D01*
X229806320Y-43871550D01*
X229925368Y-43812026D01*
X230163463Y-43812026D01*
X230282511Y-43871550D01*
X230877749Y-44645360D02*
X230877749Y-43812026D01*
X230877749Y-43395360D02*
X230818225Y-43454884D01*
X230877749Y-43514407D01*
X230937273Y-43454884D01*
X230877749Y-43395360D01*
X230877749Y-43514407D01*
X231949177Y-44585836D02*
X231830130Y-44645360D01*
X231592035Y-44645360D01*
X231472987Y-44585836D01*
X231413463Y-44466788D01*
X231413463Y-43990598D01*
X231472987Y-43871550D01*
X231592035Y-43812026D01*
X231830130Y-43812026D01*
X231949177Y-43871550D01*
X232008701Y-43990598D01*
X232008701Y-44109645D01*
X231413463Y-44228693D01*
X255038363Y-43395360D02*
X255276458Y-43395360D01*
X255395506Y-43454884D01*
X255514554Y-43573931D01*
X255574077Y-43812026D01*
X255574077Y-44228693D01*
X255514554Y-44466788D01*
X255395506Y-44585836D01*
X255276458Y-44645360D01*
X255038363Y-44645360D01*
X254919316Y-44585836D01*
X254800268Y-44466788D01*
X254740744Y-44228693D01*
X254740744Y-43812026D01*
X254800268Y-43573931D01*
X254919316Y-43454884D01*
X255038363Y-43395360D01*
X256109792Y-44645360D02*
X256109792Y-43812026D01*
X256109792Y-44050122D02*
X256169316Y-43931074D01*
X256228839Y-43871550D01*
X256347887Y-43812026D01*
X256466935Y-43812026D01*
X256883601Y-44645360D02*
X256883601Y-43812026D01*
X256883601Y-43395360D02*
X256824077Y-43454884D01*
X256883601Y-43514407D01*
X256943125Y-43454884D01*
X256883601Y-43395360D01*
X256883601Y-43514407D01*
X259145506Y-44645360D02*
X258728839Y-44050122D01*
X258431220Y-44645360D02*
X258431220Y-43395360D01*
X258907411Y-43395360D01*
X259026458Y-43454884D01*
X259085982Y-43514407D01*
X259145506Y-43633455D01*
X259145506Y-43812026D01*
X259085982Y-43931074D01*
X259026458Y-43990598D01*
X258907411Y-44050122D01*
X258431220Y-44050122D01*
X260157411Y-44585836D02*
X260038363Y-44645360D01*
X259800268Y-44645360D01*
X259681220Y-44585836D01*
X259621696Y-44466788D01*
X259621696Y-43990598D01*
X259681220Y-43871550D01*
X259800268Y-43812026D01*
X260038363Y-43812026D01*
X260157411Y-43871550D01*
X260216935Y-43990598D01*
X260216935Y-44109645D01*
X259621696Y-44228693D01*
X260633601Y-43812026D02*
X260931220Y-44645360D01*
X261228839Y-43812026D01*
X263312173Y-44645360D02*
X262597887Y-44645360D01*
X262955030Y-44645360D02*
X262955030Y-43395360D01*
X262835982Y-43573931D01*
X262716935Y-43692979D01*
X262597887Y-43752503D01*
X263847887Y-44526312D02*
X263907411Y-44585836D01*
X263847887Y-44645360D01*
X263788363Y-44585836D01*
X263847887Y-44526312D01*
X263847887Y-44645360D01*
X264681220Y-43395360D02*
X264800268Y-43395360D01*
X264919316Y-43454884D01*
X264978839Y-43514407D01*
X265038363Y-43633455D01*
X265097887Y-43871550D01*
X265097887Y-44169169D01*
X265038363Y-44407264D01*
X264978839Y-44526312D01*
X264919316Y-44585836D01*
X264800268Y-44645360D01*
X264681220Y-44645360D01*
X264562173Y-44585836D01*
X264502649Y-44526312D01*
X264443125Y-44407264D01*
X264383601Y-44169169D01*
X264383601Y-43871550D01*
X264443125Y-43633455D01*
X264502649Y-43514407D01*
X264562173Y-43454884D01*
X264681220Y-43395360D01*
D12*
G36*
X390047170Y-59518840D02*
G01*
X389247170Y-60118840D01*
X389247170Y-58918840D01*
X390047170Y-59518840D01*
G37*
X390047170Y-59518840D02*
X389247170Y-60118840D01*
X389247170Y-58918840D01*
X390047170Y-59518840D01*
D11*
X390761408Y-58618840D02*
X391261370Y-58618840D01*
X391761370Y-59918840D02*
X391761370Y-59118840D01*
X391261332Y-60418840D02*
X390761370Y-60418840D01*
X390261370Y-59918840D02*
X390261370Y-59118840D01*
X390261370Y-59118840D02*
G75*
G02*
X390761370Y-58618840I500000J0D01*
G01*
X391261370Y-58618840D02*
G75*
G02*
X391761370Y-59118840I0J-500000D01*
G01*
X391761370Y-59918840D02*
G75*
G02*
X391261370Y-60418840I-500000J0D01*
G01*
X390761370Y-60418840D02*
G75*
G02*
X390261370Y-59918840I0J500000D01*
G01*
D10*
X393025274Y-60035506D02*
X392225274Y-60035506D01*
X392225274Y-59868840D01*
X392263370Y-59768840D01*
X392339560Y-59702173D01*
X392415750Y-59668840D01*
X392568131Y-59635506D01*
X392682417Y-59635506D01*
X392834798Y-59668840D01*
X392910989Y-59702173D01*
X392987179Y-59768840D01*
X393025274Y-59868840D01*
X393025274Y-60035506D01*
X393025274Y-58968840D02*
X393025274Y-59368840D01*
X393025274Y-59168840D02*
X392225274Y-59168840D01*
X392339560Y-59235506D01*
X392415750Y-59302173D01*
X392453846Y-59368840D01*
M02*
