G04 #@! TF.GenerationSoftware,KiCad,Pcbnew,(5.1.10-1-10_14)*
G04 #@! TF.CreationDate,2021-08-09T22:53:28-05:00*
G04 #@! TF.ProjectId,ori_top_plate,6f72695f-746f-4705-9f70-6c6174652e6b,rev?*
G04 #@! TF.SameCoordinates,Original*
G04 #@! TF.FileFunction,Legend,Top*
G04 #@! TF.FilePolarity,Positive*
%FSLAX46Y46*%
G04 Gerber Fmt 4.6, Leading zero omitted, Abs format (unit mm)*
G04 Created by KiCad (PCBNEW (5.1.10-1-10_14)) date 2021-08-09 22:53:28*
%MOMM*%
%LPD*%
G01*
G04 APERTURE LIST*
%ADD10C,0.150000*%
%ADD11C,0.200000*%
%ADD12C,0.100000*%
G04 APERTURE END LIST*
D10*
X378693061Y-83187967D02*
X379407347Y-83187967D01*
X379550204Y-83235586D01*
X379645442Y-83330824D01*
X379693061Y-83473681D01*
X379693061Y-83568920D01*
X379693061Y-82235586D02*
X379693061Y-82711777D01*
X378693061Y-82711777D01*
X379597823Y-81330824D02*
X379645442Y-81378443D01*
X379693061Y-81521300D01*
X379693061Y-81616539D01*
X379645442Y-81759396D01*
X379550204Y-81854634D01*
X379454966Y-81902253D01*
X379264490Y-81949872D01*
X379121633Y-81949872D01*
X378931157Y-81902253D01*
X378835919Y-81854634D01*
X378740681Y-81759396D01*
X378693061Y-81616539D01*
X378693061Y-81521300D01*
X378740681Y-81378443D01*
X378788300Y-81330824D01*
X378693061Y-80616539D02*
X379407347Y-80616539D01*
X379550204Y-80664158D01*
X379645442Y-80759396D01*
X379693061Y-80902253D01*
X379693061Y-80997491D01*
X379693061Y-79664158D02*
X379693061Y-80140348D01*
X378693061Y-80140348D01*
X379597823Y-78759396D02*
X379645442Y-78807015D01*
X379693061Y-78949872D01*
X379693061Y-79045110D01*
X379645442Y-79187967D01*
X379550204Y-79283205D01*
X379454966Y-79330824D01*
X379264490Y-79378443D01*
X379121633Y-79378443D01*
X378931157Y-79330824D01*
X378835919Y-79283205D01*
X378740681Y-79187967D01*
X378693061Y-79045110D01*
X378693061Y-78949872D01*
X378740681Y-78807015D01*
X378788300Y-78759396D01*
X378693061Y-78045110D02*
X379407347Y-78045110D01*
X379550204Y-78092729D01*
X379645442Y-78187967D01*
X379693061Y-78330824D01*
X379693061Y-78426062D01*
X379693061Y-77092729D02*
X379693061Y-77568920D01*
X378693061Y-77568920D01*
X379597823Y-76187967D02*
X379645442Y-76235586D01*
X379693061Y-76378443D01*
X379693061Y-76473681D01*
X379645442Y-76616539D01*
X379550204Y-76711777D01*
X379454966Y-76759396D01*
X379264490Y-76807015D01*
X379121633Y-76807015D01*
X378931157Y-76759396D01*
X378835919Y-76711777D01*
X378740681Y-76616539D01*
X378693061Y-76473681D01*
X378693061Y-76378443D01*
X378740681Y-76235586D01*
X378788300Y-76187967D01*
X378693061Y-75473681D02*
X379407347Y-75473681D01*
X379550204Y-75521300D01*
X379645442Y-75616539D01*
X379693061Y-75759396D01*
X379693061Y-75854634D01*
X379693061Y-74521300D02*
X379693061Y-74997491D01*
X378693061Y-74997491D01*
X379597823Y-73616539D02*
X379645442Y-73664158D01*
X379693061Y-73807015D01*
X379693061Y-73902253D01*
X379645442Y-74045110D01*
X379550204Y-74140348D01*
X379454966Y-74187967D01*
X379264490Y-74235586D01*
X379121633Y-74235586D01*
X378931157Y-74187967D01*
X378835919Y-74140348D01*
X378740681Y-74045110D01*
X378693061Y-73902253D01*
X378693061Y-73807015D01*
X378740681Y-73664158D01*
X378788300Y-73616539D01*
D11*
X232229330Y-59251046D02*
X232229330Y-60262951D01*
X232169806Y-60381999D01*
X232110282Y-60441523D01*
X231991235Y-60501046D01*
X231812663Y-60501046D01*
X231693616Y-60441523D01*
X232229330Y-60024856D02*
X232110282Y-60084380D01*
X231872187Y-60084380D01*
X231753139Y-60024856D01*
X231693616Y-59965332D01*
X231634092Y-59846284D01*
X231634092Y-59489142D01*
X231693616Y-59370094D01*
X231753139Y-59310570D01*
X231872187Y-59251046D01*
X232110282Y-59251046D01*
X232229330Y-59310570D01*
X232824568Y-60084380D02*
X232824568Y-59251046D01*
X232824568Y-58834380D02*
X232765044Y-58893904D01*
X232824568Y-58953427D01*
X232884092Y-58893904D01*
X232824568Y-58834380D01*
X232824568Y-58953427D01*
X233241235Y-59251046D02*
X233717425Y-59251046D01*
X233419806Y-58834380D02*
X233419806Y-59905808D01*
X233479330Y-60024856D01*
X233598378Y-60084380D01*
X233717425Y-60084380D01*
X234134092Y-60084380D02*
X234134092Y-58834380D01*
X234669806Y-60084380D02*
X234669806Y-59429618D01*
X234610282Y-59310570D01*
X234491235Y-59251046D01*
X234312663Y-59251046D01*
X234193616Y-59310570D01*
X234134092Y-59370094D01*
X235800758Y-59251046D02*
X235800758Y-60084380D01*
X235265044Y-59251046D02*
X235265044Y-59905808D01*
X235324568Y-60024856D01*
X235443616Y-60084380D01*
X235622187Y-60084380D01*
X235741235Y-60024856D01*
X235800758Y-59965332D01*
X236395997Y-60084380D02*
X236395997Y-58834380D01*
X236395997Y-59310570D02*
X236515044Y-59251046D01*
X236753139Y-59251046D01*
X236872187Y-59310570D01*
X236931711Y-59370094D01*
X236991235Y-59489142D01*
X236991235Y-59846284D01*
X236931711Y-59965332D01*
X236872187Y-60024856D01*
X236753139Y-60084380D01*
X236515044Y-60084380D01*
X236395997Y-60024856D01*
X237526949Y-59965332D02*
X237586473Y-60024856D01*
X237526949Y-60084380D01*
X237467425Y-60024856D01*
X237526949Y-59965332D01*
X237526949Y-60084380D01*
X238657901Y-60024856D02*
X238538854Y-60084380D01*
X238300758Y-60084380D01*
X238181711Y-60024856D01*
X238122187Y-59965332D01*
X238062663Y-59846284D01*
X238062663Y-59489142D01*
X238122187Y-59370094D01*
X238181711Y-59310570D01*
X238300758Y-59251046D01*
X238538854Y-59251046D01*
X238657901Y-59310570D01*
X239372187Y-60084380D02*
X239253139Y-60024856D01*
X239193616Y-59965332D01*
X239134092Y-59846284D01*
X239134092Y-59489142D01*
X239193616Y-59370094D01*
X239253139Y-59310570D01*
X239372187Y-59251046D01*
X239550758Y-59251046D01*
X239669806Y-59310570D01*
X239729330Y-59370094D01*
X239788854Y-59489142D01*
X239788854Y-59846284D01*
X239729330Y-59965332D01*
X239669806Y-60024856D01*
X239550758Y-60084380D01*
X239372187Y-60084380D01*
X240324568Y-60084380D02*
X240324568Y-59251046D01*
X240324568Y-59370094D02*
X240384092Y-59310570D01*
X240503139Y-59251046D01*
X240681711Y-59251046D01*
X240800758Y-59310570D01*
X240860282Y-59429618D01*
X240860282Y-60084380D01*
X240860282Y-59429618D02*
X240919806Y-59310570D01*
X241038854Y-59251046D01*
X241217425Y-59251046D01*
X241336473Y-59310570D01*
X241395997Y-59429618D01*
X241395997Y-60084380D01*
X242884092Y-58774856D02*
X241812663Y-60381999D01*
X243836473Y-60084380D02*
X243836473Y-58834380D01*
X243836473Y-60024856D02*
X243717425Y-60084380D01*
X243479330Y-60084380D01*
X243360282Y-60024856D01*
X243300758Y-59965332D01*
X243241235Y-59846284D01*
X243241235Y-59489142D01*
X243300758Y-59370094D01*
X243360282Y-59310570D01*
X243479330Y-59251046D01*
X243717425Y-59251046D01*
X243836473Y-59310570D01*
X244431711Y-60084380D02*
X244431711Y-59251046D01*
X244431711Y-58834380D02*
X244372187Y-58893904D01*
X244431711Y-58953427D01*
X244491235Y-58893904D01*
X244431711Y-58834380D01*
X244431711Y-58953427D01*
X245503139Y-60024856D02*
X245384092Y-60084380D01*
X245145997Y-60084380D01*
X245026949Y-60024856D01*
X244967425Y-59905808D01*
X244967425Y-59429618D01*
X245026949Y-59310570D01*
X245145997Y-59251046D01*
X245384092Y-59251046D01*
X245503139Y-59310570D01*
X245562663Y-59429618D01*
X245562663Y-59548665D01*
X244967425Y-59667713D01*
X246098378Y-60084380D02*
X246098378Y-59251046D01*
X246098378Y-59489142D02*
X246157901Y-59370094D01*
X246217425Y-59310570D01*
X246336473Y-59251046D01*
X246455520Y-59251046D01*
X246872187Y-60084380D02*
X246872187Y-59251046D01*
X246872187Y-58834380D02*
X246812663Y-58893904D01*
X246872187Y-58953427D01*
X246931711Y-58893904D01*
X246872187Y-58834380D01*
X246872187Y-58953427D01*
X248003139Y-60024856D02*
X247884092Y-60084380D01*
X247645997Y-60084380D01*
X247526949Y-60024856D01*
X247467425Y-59965332D01*
X247407901Y-59846284D01*
X247407901Y-59489142D01*
X247467425Y-59370094D01*
X247526949Y-59310570D01*
X247645997Y-59251046D01*
X247884092Y-59251046D01*
X248003139Y-59310570D01*
X248538854Y-60084380D02*
X248538854Y-58834380D01*
X248657901Y-59608189D02*
X249015044Y-60084380D01*
X249015044Y-59251046D02*
X248538854Y-59727237D01*
X250086473Y-60084380D02*
X250086473Y-58834380D01*
X250086473Y-60024856D02*
X249967425Y-60084380D01*
X249729330Y-60084380D01*
X249610282Y-60024856D01*
X249550758Y-59965332D01*
X249491235Y-59846284D01*
X249491235Y-59489142D01*
X249550758Y-59370094D01*
X249610282Y-59310570D01*
X249729330Y-59251046D01*
X249967425Y-59251046D01*
X250086473Y-59310570D01*
X250681711Y-60084380D02*
X250681711Y-59251046D01*
X250681711Y-58834380D02*
X250622187Y-58893904D01*
X250681711Y-58953427D01*
X250741235Y-58893904D01*
X250681711Y-58834380D01*
X250681711Y-58953427D01*
X251753139Y-60024856D02*
X251634092Y-60084380D01*
X251395997Y-60084380D01*
X251276949Y-60024856D01*
X251217425Y-59905808D01*
X251217425Y-59429618D01*
X251276949Y-59310570D01*
X251395997Y-59251046D01*
X251634092Y-59251046D01*
X251753139Y-59310570D01*
X251812663Y-59429618D01*
X251812663Y-59548665D01*
X251217425Y-59667713D01*
X274942457Y-58834380D02*
X275180552Y-58834380D01*
X275299600Y-58893904D01*
X275418648Y-59012951D01*
X275478171Y-59251046D01*
X275478171Y-59667713D01*
X275418648Y-59905808D01*
X275299600Y-60024856D01*
X275180552Y-60084380D01*
X274942457Y-60084380D01*
X274823410Y-60024856D01*
X274704362Y-59905808D01*
X274644838Y-59667713D01*
X274644838Y-59251046D01*
X274704362Y-59012951D01*
X274823410Y-58893904D01*
X274942457Y-58834380D01*
X276013886Y-60084380D02*
X276013886Y-59251046D01*
X276013886Y-59489142D02*
X276073410Y-59370094D01*
X276132933Y-59310570D01*
X276251981Y-59251046D01*
X276371029Y-59251046D01*
X276787695Y-60084380D02*
X276787695Y-59251046D01*
X276787695Y-58834380D02*
X276728171Y-58893904D01*
X276787695Y-58953427D01*
X276847219Y-58893904D01*
X276787695Y-58834380D01*
X276787695Y-58953427D01*
X279049600Y-60084380D02*
X278632933Y-59489142D01*
X278335314Y-60084380D02*
X278335314Y-58834380D01*
X278811505Y-58834380D01*
X278930552Y-58893904D01*
X278990076Y-58953427D01*
X279049600Y-59072475D01*
X279049600Y-59251046D01*
X278990076Y-59370094D01*
X278930552Y-59429618D01*
X278811505Y-59489142D01*
X278335314Y-59489142D01*
X280061505Y-60024856D02*
X279942457Y-60084380D01*
X279704362Y-60084380D01*
X279585314Y-60024856D01*
X279525790Y-59905808D01*
X279525790Y-59429618D01*
X279585314Y-59310570D01*
X279704362Y-59251046D01*
X279942457Y-59251046D01*
X280061505Y-59310570D01*
X280121029Y-59429618D01*
X280121029Y-59548665D01*
X279525790Y-59667713D01*
X280537695Y-59251046D02*
X280835314Y-60084380D01*
X281132933Y-59251046D01*
X283216267Y-60084380D02*
X282501981Y-60084380D01*
X282859124Y-60084380D02*
X282859124Y-58834380D01*
X282740076Y-59012951D01*
X282621029Y-59131999D01*
X282501981Y-59191523D01*
X283751981Y-59965332D02*
X283811505Y-60024856D01*
X283751981Y-60084380D01*
X283692457Y-60024856D01*
X283751981Y-59965332D01*
X283751981Y-60084380D01*
X284585314Y-58834380D02*
X284704362Y-58834380D01*
X284823410Y-58893904D01*
X284882933Y-58953427D01*
X284942457Y-59072475D01*
X285001981Y-59310570D01*
X285001981Y-59608189D01*
X284942457Y-59846284D01*
X284882933Y-59965332D01*
X284823410Y-60024856D01*
X284704362Y-60084380D01*
X284585314Y-60084380D01*
X284466267Y-60024856D01*
X284406743Y-59965332D01*
X284347219Y-59846284D01*
X284287695Y-59608189D01*
X284287695Y-59310570D01*
X284347219Y-59072475D01*
X284406743Y-58953427D01*
X284466267Y-58893904D01*
X284585314Y-58834380D01*
X368220360Y-59118904D02*
X368220360Y-59918904D01*
X367220398Y-58618904D02*
X367720360Y-58618904D01*
X366720360Y-59118904D02*
X366720360Y-59918904D01*
X367720322Y-60418904D02*
X367220360Y-60418904D01*
D12*
G36*
X368434560Y-59518904D02*
G01*
X369234560Y-58918904D01*
X369234560Y-60118904D01*
X368434560Y-59518904D01*
G37*
X368434560Y-59518904D02*
X369234560Y-58918904D01*
X369234560Y-60118904D01*
X368434560Y-59518904D01*
D11*
X368220360Y-59918904D02*
G75*
G02*
X367720360Y-60418904I-500000J0D01*
G01*
X367220360Y-60418904D02*
G75*
G02*
X366720360Y-59918904I0J500000D01*
G01*
X366720360Y-59118904D02*
G75*
G02*
X367220360Y-58618904I500000J0D01*
G01*
X367720360Y-58618904D02*
G75*
G02*
X368220360Y-59118904I0J-500000D01*
G01*
X390261370Y-59918840D02*
X390261370Y-59118840D01*
X391261332Y-60418840D02*
X390761370Y-60418840D01*
X391761370Y-59918840D02*
X391761370Y-59118840D01*
X390761408Y-58618840D02*
X391261370Y-58618840D01*
D12*
G36*
X390047170Y-59518840D02*
G01*
X389247170Y-60118840D01*
X389247170Y-58918840D01*
X390047170Y-59518840D01*
G37*
X390047170Y-59518840D02*
X389247170Y-60118840D01*
X389247170Y-58918840D01*
X390047170Y-59518840D01*
D11*
X390261370Y-59118840D02*
G75*
G02*
X390761370Y-58618840I500000J0D01*
G01*
X391261370Y-58618840D02*
G75*
G02*
X391761370Y-59118840I0J-500000D01*
G01*
X391761370Y-59918840D02*
G75*
G02*
X391261370Y-60418840I-500000J0D01*
G01*
X390761370Y-60418840D02*
G75*
G02*
X390261370Y-59918840I0J500000D01*
G01*
D10*
X366180264Y-60035570D02*
X365380264Y-60035570D01*
X365380264Y-59868904D01*
X365418360Y-59768904D01*
X365494550Y-59702237D01*
X365570740Y-59668904D01*
X365723121Y-59635570D01*
X365837407Y-59635570D01*
X365989788Y-59668904D01*
X366065979Y-59702237D01*
X366142169Y-59768904D01*
X366180264Y-59868904D01*
X366180264Y-60035570D01*
X365456455Y-59368904D02*
X365418360Y-59335570D01*
X365380264Y-59268904D01*
X365380264Y-59102237D01*
X365418360Y-59035570D01*
X365456455Y-59002237D01*
X365532645Y-58968904D01*
X365608836Y-58968904D01*
X365723121Y-59002237D01*
X366180264Y-59402237D01*
X366180264Y-58968904D01*
X393025274Y-60035506D02*
X392225274Y-60035506D01*
X392225274Y-59868840D01*
X392263370Y-59768840D01*
X392339560Y-59702173D01*
X392415750Y-59668840D01*
X392568131Y-59635506D01*
X392682417Y-59635506D01*
X392834798Y-59668840D01*
X392910989Y-59702173D01*
X392987179Y-59768840D01*
X393025274Y-59868840D01*
X393025274Y-60035506D01*
X393025274Y-58968840D02*
X393025274Y-59368840D01*
X393025274Y-59168840D02*
X392225274Y-59168840D01*
X392339560Y-59235506D01*
X392415750Y-59302173D01*
X392453846Y-59368840D01*
M02*
