G04 #@! TF.GenerationSoftware,KiCad,Pcbnew,(5.1.10-1-10_14)*
G04 #@! TF.CreationDate,2021-08-09T22:53:28-05:00*
G04 #@! TF.ProjectId,ori_top_plate,6f72695f-746f-4705-9f70-6c6174652e6b,rev?*
G04 #@! TF.SameCoordinates,Original*
G04 #@! TF.FileFunction,Soldermask,Top*
G04 #@! TF.FilePolarity,Negative*
%FSLAX46Y46*%
G04 Gerber Fmt 4.6, Leading zero omitted, Abs format (unit mm)*
G04 Created by KiCad (PCBNEW (5.1.10-1-10_14)) date 2021-08-09 22:53:28*
%MOMM*%
%LPD*%
G01*
G04 APERTURE LIST*
%ADD10C,0.800000*%
%ADD11C,3.500000*%
G04 APERTURE END LIST*
D10*
X375048450Y-97631692D03*
X375048450Y-96381692D03*
X375048450Y-95131692D03*
X375048450Y-98881692D03*
X375048450Y-100131692D03*
G36*
G01*
X370270360Y-59868904D02*
X370270360Y-59168904D01*
G75*
G02*
X370520360Y-58918904I250000J0D01*
G01*
X371020360Y-58918904D01*
G75*
G02*
X371270360Y-59168904I0J-250000D01*
G01*
X371270360Y-59868904D01*
G75*
G02*
X371020360Y-60118904I-250000J0D01*
G01*
X370520360Y-60118904D01*
G75*
G02*
X370270360Y-59868904I0J250000D01*
G01*
G37*
G36*
G01*
X366970360Y-59868904D02*
X366970360Y-59168904D01*
G75*
G02*
X367220360Y-58918904I250000J0D01*
G01*
X367720360Y-58918904D01*
G75*
G02*
X367970360Y-59168904I0J-250000D01*
G01*
X367970360Y-59868904D01*
G75*
G02*
X367720360Y-60118904I-250000J0D01*
G01*
X367220360Y-60118904D01*
G75*
G02*
X366970360Y-59868904I0J250000D01*
G01*
G37*
D11*
X165497570Y-97631660D03*
X165523314Y-59518904D03*
X222647810Y-59531500D03*
X222647810Y-97631660D03*
X297920000Y-59660000D03*
X298848130Y-97631660D03*
X356023474Y-59518904D03*
X356023474Y-97618936D03*
D10*
X375048450Y-78581580D03*
X375048450Y-77331580D03*
X375048450Y-76081580D03*
X375048450Y-79831580D03*
X375048450Y-81081580D03*
X375048450Y-59518808D03*
X375048450Y-58268808D03*
X375048450Y-57018808D03*
X375048450Y-60768808D03*
X375048450Y-62018808D03*
D11*
X379836330Y-59518840D03*
X379836330Y-97659743D03*
G36*
G01*
X388211370Y-59168840D02*
X388211370Y-59868840D01*
G75*
G02*
X387961370Y-60118840I-250000J0D01*
G01*
X387461370Y-60118840D01*
G75*
G02*
X387211370Y-59868840I0J250000D01*
G01*
X387211370Y-59168840D01*
G75*
G02*
X387461370Y-58918840I250000J0D01*
G01*
X387961370Y-58918840D01*
G75*
G02*
X388211370Y-59168840I0J-250000D01*
G01*
G37*
G36*
G01*
X391511370Y-59168840D02*
X391511370Y-59868840D01*
G75*
G02*
X391261370Y-60118840I-250000J0D01*
G01*
X390761370Y-60118840D01*
G75*
G02*
X390511370Y-59868840I0J250000D01*
G01*
X390511370Y-59168840D01*
G75*
G02*
X390761370Y-58918840I250000J0D01*
G01*
X391261370Y-58918840D01*
G75*
G02*
X391511370Y-59168840I0J-250000D01*
G01*
G37*
X165523314Y-39873575D03*
X165523314Y-117264265D03*
X260773394Y-39873575D03*
X260773394Y-117264265D03*
X356023474Y-39873575D03*
X356023474Y-117264265D03*
X389361002Y-39873575D03*
X389361002Y-117264265D03*
M02*
